# xmcd
#
# Track frame offsets: 
#        150
#        14750
#        28347
#        44027
#        58467
#        77125
#        91104
#        106530
#        123452
#        135920
#
# Disc length: 2014 seconds
#
# Revision: 0
# Processed by: cddbd v1.5.2PL0 Copyright (c) Steve Scherf et al.
# Submitted via: ExactAudioCopy v1.0b1
#
DISCID=8507dc0a
DTITLE=Bobby Treece - Shoot The Moon
DYEAR=1900
DGENRE=Country
TTITLE0=Shoot the Moon
TTITLE1=Carry Me
TTITLE2=Tall on His Knees
TTITLE3=A Love Deeper Than You're Feelings
TTITLE4=Together Again in Tennessee
TTITLE5=Swimming Hole
TTITLE6=The Widows Mite
TTITLE7=Talk of the Company
TTITLE8=Grip of Grace
TTITLE9=The Power of Prayer
EXTD=
EXTT0=
EXTT1=
EXTT2=
EXTT3=
EXTT4=
EXTT5=
EXTT6=
EXTT7=
EXTT8=
EXTT9=
PLAYORDER=
